<svg width="373" height="58" viewBox="0 0 373 58" fill="none" xmlns="http://www.w3.org/2000/svg">
<rect x="1.5" y="1.5" width="370" height="55" rx="5.5" fill="#EDF7F6"/>
<path d="M16.6214 42H22.0032L23.3828 33.7472H27.8945C33.7734 33.7472 37.7507 30.267 38.5835 25.1712C39.4162 20.1001 36.6694 16.5455 30.8899 16.5455H20.8473L16.6214 42ZM24.1037 29.4343L25.5206 20.9453H29.1499C32.2571 20.9453 33.4503 22.6232 33.0401 25.1712C32.63 27.6942 30.8526 29.4343 27.733 29.4343H24.1037ZM39.2826 42H44.6643L46.1682 32.9766H50.0834L53.4143 42H59.3554L55.5894 32.1065C58.6966 30.8636 60.7226 28.3406 61.2943 24.8604C62.127 19.8018 59.3305 16.5455 53.551 16.5455H43.5084L39.2826 42ZM46.8891 28.6513L48.1817 20.9453H51.811C54.8934 20.9453 56.1611 22.3125 55.751 24.8604C55.3408 27.3835 53.6381 28.6513 50.5432 28.6513H46.8891ZM87.911 29.6207C89.303 21.1442 84.8286 16.1974 77.9305 16.1974C71.2934 16.1974 65.5139 20.821 64.1716 28.9869C62.7671 37.4386 67.254 42.348 74.1894 42.348C80.7892 42.348 86.5313 37.7866 87.911 29.6207ZM82.5541 28.9869C81.6468 34.5053 78.4525 37.5877 74.3882 37.5877C70.6595 37.5877 68.6088 34.8782 69.5161 29.6207C70.411 24.1023 73.6301 20.9577 77.7192 20.9577C81.4727 20.9577 83.4117 23.7543 82.5541 28.9869Z" fill="#14B8A7"/>
<path d="M90.1326 42H94.7438L96.1731 33.3991H101.033C106.937 33.3991 110.665 29.8693 111.473 24.9723C112.281 20.1001 109.758 16.5455 103.904 16.5455H94.3585L90.1326 42ZM96.807 29.6083L98.3358 20.3984H102.562C106.017 20.3984 107.21 22.2504 106.775 24.9723C106.34 27.6694 104.488 29.6083 101.045 29.6083H96.807ZM112.623 42H129.278L129.924 38.1346H117.88L119.024 31.1868H130.11L130.757 27.3214H119.67L120.814 20.4109H132.758L133.404 16.5455H116.849L112.623 42ZM133.883 42H138.494L140.047 32.6783H144.733L148.188 42H153.334L149.493 31.9077C152.7 30.7021 154.701 28.1293 155.273 24.6864C156.081 19.8018 153.508 16.5455 147.654 16.5455H138.108L133.883 42ZM140.681 28.8501L142.086 20.3984H146.312C149.742 20.3984 151.01 21.9645 150.575 24.6864C150.14 27.3835 148.362 28.8501 144.944 28.8501H140.681ZM156.783 42H161.394L163.184 31.1868H173.761L174.407 27.3214H163.83L164.974 20.4109H176.669L177.316 16.5455H161.009L156.783 42ZM202.099 29.571C203.491 21.1939 199.166 16.1974 192.392 16.1974C185.805 16.1974 180.15 20.9205 178.807 29.0117C177.428 37.364 181.74 42.348 188.576 42.348C195.102 42.348 200.744 37.6623 202.099 29.571ZM197.562 29.0117C196.581 34.9279 193.013 38.2092 188.725 38.2092C184.748 38.2092 182.374 35.2511 183.356 29.571C184.301 23.6548 187.893 20.3363 192.206 20.3363C196.208 20.3363 198.495 23.3565 197.562 29.0117ZM204.395 42H209.006L210.56 32.6783H215.246L218.701 42H223.847L220.006 31.9077C223.213 30.7021 225.214 28.1293 225.786 24.6864C226.593 19.8018 224.021 16.5455 218.167 16.5455H208.621L204.395 42ZM211.194 28.8501L212.598 20.3984H216.824C220.255 20.3984 221.522 21.9645 221.087 24.6864C220.652 27.3835 218.875 28.8501 215.457 28.8501H211.194ZM231.522 16.5455L227.296 42H231.72L234.654 24.4751H234.89L239.016 41.9254H242.31L252.253 24.5124H252.477L249.568 42H253.993L258.219 16.5455H252.576L241.974 34.9901H241.676L237.164 16.5455H231.522ZM262.283 42L265.44 35.7234H275.011L276.067 42H280.989L276.241 16.5455H270.549L257.361 42H262.283ZM267.292 32.0195L272.45 21.7656H272.649L274.377 32.0195H267.292ZM309.485 16.5455H304.899L302.028 33.8963H301.792L292.694 16.5455H288.567L284.342 42H288.953L291.849 24.6616H292.048L301.158 42H305.26L309.485 16.5455ZM334.844 25.1339C334.98 19.4787 331.09 16.1974 325.335 16.1974C318.81 16.1974 313.168 20.8832 311.813 28.9993C310.446 37.3516 314.684 42.348 321.52 42.348C327.448 42.348 331.96 38.408 333.489 33.5483H328.853C327.759 36.5188 324.925 38.2092 321.731 38.2092C317.766 38.2092 315.417 35.2511 316.349 29.5462C317.319 23.6797 320.936 20.3363 325.224 20.3363C328.207 20.3363 330.245 22.0888 330.27 25.1339H334.844ZM336.295 42H352.95L353.596 38.1346H341.552L342.696 31.1868H353.782L354.429 27.3214H343.342L344.485 20.4109H356.43L357.076 16.5455H340.521L336.295 42Z" fill="#085E56"/>
<rect x="1.5" y="1.5" width="370" height="55" rx="5.5" stroke="#085E56" stroke-width="3"/>
</svg>
